<?xml version="1.0" encoding="UTF-8"?>
<svg width="896px" height="896px" viewBox="0 0 896 896" version="1.1" xmlns="http://www.w3.org/2000/svg" xmlns:xlink="http://www.w3.org/1999/xlink">
    <!-- Generator: Sketch 49.3 (51167) - http://www.bohemiancoding.com/sketch -->
    <title>weibo</title>
    <desc>Created with Sketch.</desc>
    <defs></defs>
    <g id="Page-1" stroke="none" stroke-width="1" fill="none" fill-rule="evenodd">
        <g id="weibo" fill="#FFFFFF" fill-rule="nonzero">
            <path d="M448,0 C200.6,0 0,200.6 0,448 C0,695.4 200.6,896 448,896 C695.4,896 896,695.4 896,448 C896,200.6 695.4,0 448,0 Z M403.6,672 C289.1,672 172,616.4 172,524.9 C172,477.1 202.2,421.8 254.3,369.6 C323.8,300 404.9,268.2 435.4,298.8 C448.9,312.3 450.2,335.6 441.5,363.4 C437,377.4 454.6,369.7 454.6,369.7 C510.8,346.1 559.8,344.7 577.7,370.4 C587.3,384.1 586.3,403.2 577.5,425.5 C573.4,435.7 578.8,437.3 586.5,439.6 C618.2,449.4 653.4,473.2 653.4,515.1 C653.6,584.6 553.7,672 403.6,672 Z M610.9,381.2 C614.6,369.7 612.3,356.7 603.7,347.1 C595.1,337.5 582.3,333.9 570.6,336.4 C560.8,338.5 551.1,332.2 549,322.4 C546.9,312.5 553.2,302.8 563,300.7 C587.1,295.6 613.1,303 630.7,322.6 C648.4,342.2 653.1,368.9 645.6,392.4 C642.5,402 632.3,407.2 622.7,404.1 C613.1,401 607.8,390.8 610.9,381.2 Z M716.9,415.5 C716.9,415.5 716.9,415.6 716.9,415.5 C713.3,426.7 701.4,432.8 690.3,429.2 C679.2,425.6 673.1,413.7 676.7,402.5 C687.7,368.3 680.7,329.3 655,300.7 C629.2,272.1 591.2,261.2 556.1,268.6 C544.7,271.1 533.4,263.7 531,252.3 C528.5,240.9 535.8,229.6 547.2,227.2 C596.6,216.7 650,232 686.3,272.3 C722.6,312.5 732.4,367.4 716.9,415.5 Z" id="Shape"></path>
            <path d="M382.4,421.6 C291,430.6 221.7,486.7 227.7,546.8 C233.6,606.9 312.5,648.3 403.9,639.3 C495.3,630.2 564.6,574.2 558.6,514 C552.7,453.9 473.8,412.5 382.4,421.6 Z M462.6,563.3 C443.9,605.6 390.3,628.1 344.8,613.4 C300.9,599.2 282.3,555.7 301.5,516.6 C320.4,478.2 369.5,456.5 413,467.8 C458,479.5 481,522 462.6,563.3 Z" id="Shape"></path>
            <path d="M369.6,531.1 C355.4,525.2 337.2,531.3 328.4,545 C319.6,558.8 323.7,575.2 337.7,581.6 C352,588.1 370.9,581.9 379.7,567.8 C388.5,553.5 383.9,537.2 369.6,531.1 Z M404.5,516.6 C399.1,514.4 392.3,517.1 389.1,522.4 C386,527.8 387.7,533.9 393.2,536.2 C398.7,538.5 405.8,535.9 409,530.4 C412,524.8 410,518.6 404.5,516.6 Z" id="Shape"></path>
        </g>
    </g>
</svg>